<svg version="1.1" xmlns="http://www.w3.org/2000/svg" xmlns:xlink="http://www.w3.org/1999/xlink" x="0px" y="0px" viewBox="0.6700000166893005 1.1700000762939453 98.81999969482422 98.83000183105469" enable-background="new 0 0 101 100" xml:space="preserve">
    <path d="M49.63 60a5.56 5.56 0 0 0-1.78-.56c-3.39-.6-6.77 0-10.15-.23-1.82-.12-2.77.85-3 2.75-1.56 10.83-3.19 21.65-4.82 32.46-.46 3.08-1.67 4.13-4.82 4.15H12.54c-2.88 0-3.64-.71-3.33-3.56.43-4.07 1.13-8.11 1.74-12.15.49-3.21 1.05-6.41 1.53-9.62.55-3.7 1-7.42 1.61-11.09.36-2-.36-2.88-2.21-2.9-2.66 0-5.33.07-8 .13-.7 0-1.41.12-2.11.12s-1.34 0-1.64-.72.25-1.19.67-1.65l17.8-19.6c2.76-3 5.46-6.11 8.27-9.09 2.09-2.22 3.24-2.22 4.85.29 4.83 7.55 9.52 15.2 14.28 22.8 1.19 1.92 2.43 3.81 3.63 5.72a2 2 0 0 0 .66.67" fill="#4dcbf5">
    </path>
    <path d="M50.29 57.92a2.09 2.09 0 0 0 .89.3c9.06 1 16.54-2.65 21-10.61 5.69-10.15.42-22.74-10.78-26.69a15.3 15.3 0 0 0-5.2-.92h-49c-.67 0-1.51.23-1.93-.51s.16-1.24.56-1.69c4.46-4.9 8.68-10 13.51-14.56A12 12 0 0 1 27.7.15c12-.09 23.91-.32 35.85.06 7.88.24 14.85 3.48 21 8.47a34.74 34.74 0 0 1 12.34 19.09c4 16.16-.94 29.49-13.9 39.84-1.53 1.22-1.8 2.09-.75 3.81 4.86 8 9.58 16 14.35 24 .29.48.56 1 .86 1.46.79 1.29.16 1.86-1.07 2a29.38 29.38 0 0 1-3 .07H80.44a11.16 11.16 0 0 1-10.4-5.73c-3.56-6-7.1-12-10.7-18-2.79-4.66-5.65-9.27-8.45-13.93A3.43 3.43 0 0 0 49.63 60" fill="#2a3dec">
    </path>
</svg>