<svg xmlns="http://www.w3.org/2000/svg">
      <g  fill="#333"  >
          <g class="tp-name">
              <g transform="translate(0, 0)">
          <g class="imagesvg">
              <rect fill="#333" fill-opacity="0" stroke-width="2" x="0" y="0" width="52.25387458510695" height="52.6643109540636" class="image-rect"></rect> 
              <svg x="0" y="0" width="52.25387458510695" height="52.6643109540636" filtersec="colorsb6564321402" class="image-svg-svg primary">
<svg xmlns="http://www.w3.org/2000/svg" viewBox="0 0 98.24 98.96">
            <path d="M49.63 60a5.56 5.56 0 0 0-1.78-.56c-3.39-.6-6.77 0-10.15-.23-1.82-.12-2.77.85-3 2.75-1.56 10.83-3.19 21.65-4.82 32.46-.46 3.08-1.67 4.13-4.82 4.15H12.54c-2.88 0-3.64-.71-3.33-3.56.43-4.07 1.13-8.11 1.74-12.15.49-3.21 1.05-6.41 1.53-9.62.55-3.7 1-7.42 1.61-11.09.36-2-.36-2.88-2.21-2.9-2.66 0-5.33.07-8 .13-.7 0-1.41.12-2.11.12s-1.34 0-1.64-.72.25-1.19.67-1.65l17.8-19.6c2.76-3 5.46-6.11 8.27-9.09 2.09-2.22 3.24-2.22 4.85.29 4.83 7.55 9.52 15.2 14.28 22.8 1.19 1.92 2.43 3.81 3.63 5.72a2 2 0 0 0 .66.67" fill="#4dcbf5">

            </path>
            <path d="M50.29 57.92a2.09 2.09 0 0 0 .89.3c9.06 1 16.54-2.65 21-10.61 5.69-10.15.42-22.74-10.78-26.69a15.3 15.3 0 0 0-5.2-.92h-49c-.67 0-1.51.23-1.93-.51s.16-1.24.56-1.69c4.46-4.9 8.68-10 13.51-14.56A12 12 0 0 1 27.7.15c12-.09 23.91-.32 35.85.06 7.88.24 14.85 3.48 21 8.47a34.74 34.74 0 0 1 12.34 19.09c4 16.16-.94 29.49-13.9 39.84-1.53 1.22-1.8 2.09-.75 3.81 4.86 8 9.58 16 14.35 24 .29.48.56 1 .86 1.46.79 1.29.16 1.86-1.07 2a29.38 29.38 0 0 1-3 .07H80.44a11.16 11.16 0 0 1-10.4-5.73c-3.56-6-7.1-12-10.7-18-2.79-4.66-5.65-9.27-8.45-13.93A3.43 3.43 0 0 0 49.63 60" fill="#2a3dec">

            </path>
        </svg>
    </svg> 
</g>
</g>
    <g transform="translate(56, 4.064045936395761)">
            <g data-gra="path-name" fill="#fff">
            <path d="M12.40 0L5.09 0L5.09-42.61L12.08-42.61L12.08-36.57Q16.86-43.89 25.12-43.89L25.12-43.89Q32.44-43.89 35.94-37.21L35.94-37.21Q36.25-36.89 36.25-36.89L36.25-36.89Q41.98-44.20 49.29-43.89L49.29-43.89Q62.33-42.93 62.65-29.26L62.65-29.26L62.65 0L55.34 0L55.34-27.35Q55.65-37.53 47.39-37.21L47.39-37.21Q38.48-36.25 37.53-25.76L37.53-25.76L37.53 0L30.21 0L30.21-29.26Q30.21-37.21 23.53-37.21L23.53-37.21Q12.72-36.57 12.40-23.22L12.40-23.22L12.40 0Z" transform="translate(-5.088339222614841, 43.90017667844523)">

            </path>
        </g>
    </g>
    <g transform="translate(117, 4.064045936395761)">
        <g data-gra="path-name" fill="#fff">
            <path d="M2.86-21.31L2.86-21.31Q4.13-42.93 22.58-43.89L22.58-43.89Q41.02-42.93 42.30-21.31L42.30-21.31Q41.02 0 22.58 0.64L22.58 0.64Q4.13 0 2.86-21.31ZM10.18-21.31L10.18-21.31Q11.13-5.41 22.58-5.09L22.58-5.09Q34.03-5.41 34.98-21.31L34.98-21.31Q34.03-37.21 22.58-37.53L22.58-37.53Q11.13-37.21 10.18-21.31Z" transform="translate(-2.862190812720848, 43.90017667844523)">

            </path>
        </g>
    </g>
    <g transform="translate(160, 4.064045936395761)">
                <g data-gra="path-name" fill="#fff">
                    <path d="M39.12-42.61L24.81-21.94L39.75 0L30.85 0L20.04-15.90L9.86 0L0.95 0L15.90-21.94L1.59-42.61L10.81-42.61L20.67-27.35L30.53-42.61L39.12-42.61Z" transform="translate(-0.9540636042402826, 43.90017667844523)">

            </path>
        </g>
    </g>
    </g>
    </g>
</svg>